<svg width="1102" height="256" viewBox="0 0 1102 256" fill="none" xmlns="http://www.w3.org/2000/svg">
<g clip-path="url(#clip0)">
<mask id="mask0" mask-type="alpha" maskUnits="userSpaceOnUse" x="0" y="0" width="1086" height="1092">
<path d="M506.331 1.26892C805.458 -19.0979 1064.33 208.126 1084.55 508.823C1104.73 809.52 878.598 1069.82 579.471 1090.18C280.345 1110.55 21.4759 883.326 1.25177 582.629C-18.9248 281.932 207.205 21.6358 506.331 1.26892Z" fill="#DFF1F9"/>
</mask>
<g mask="url(#mask0)">
<rect x="-355.207" y="-372.697" width="1822.02" height="1839.62" fill="#D4EEF9"/>
<path fill-rule="evenodd" clip-rule="evenodd" d="M112.412 548.555C112.412 548.555 109.748 540.418 107.654 536.706C105.56 533.042 105.417 528.759 102.515 527.284C99.6595 525.809 98.2793 523.668 95.091 524.953C91.9027 526.19 88.7147 529.331 86.4306 526.951C84.1464 524.572 82.8137 519.052 80.1489 515.293C77.4841 511.533 75.6283 501.302 77.8648 497.971C80.1014 494.64 77.6269 487.597 80.2918 484.6C82.9566 481.602 84.1935 477.366 84.717 472.941C85.2404 468.515 89.333 463.757 86.6682 459.426C84.0033 455.096 85.3837 450.671 82.9092 449.291C80.4348 447.911 78.4356 446.959 74.6287 445.151C70.7742 443.342 68.4905 443.913 66.1588 440.915C63.8271 437.917 65.7302 436.68 68.1571 434.967C70.5364 433.206 70.727 427.449 73.1539 422.024C75.6283 416.599 76.3422 414.553 79.816 409.747C83.3374 404.893 87.6679 397.517 87.6679 397.517C87.6679 397.517 90.6179 388.904 86.1448 387.524C81.6717 386.144 81.4812 386.191 77.1033 386.762C72.7254 387.286 72.3448 393.091 70.6793 396.898C69.0138 400.705 66.0635 403.56 64.8263 406.653C63.589 409.746 60.4483 408.985 59.9724 406.225C59.4965 403.465 54.9284 404.893 52.4064 401.99C49.9319 399.135 48.7896 393.567 50.3599 385.287C51.9302 377.007 53.6913 368.347 53.7389 363.636C53.7865 358.924 59.1635 345.6 64.2553 338.272C69.347 330.944 73.7724 327.803 73.7249 323.187C73.6773 318.571 76.2947 309.197 79.8637 306.675C83.4326 304.153 85.8595 303.534 89.3809 302.535C92.9023 301.536 95.1387 297.253 98.8029 297.967C102.419 298.633 101.658 303.677 104.894 305.961C108.13 308.198 108.368 308.15 110.747 313.956C113.126 319.714 113.792 317.144 114.458 313.622C115.077 310.101 115.744 304.153 118.551 305.105C121.406 306.104 121.787 309.72 124.785 310.434C127.735 311.148 128.497 306.627 130.495 308.626C132.494 310.577 131.209 318.238 133.636 319.476C136.063 320.713 139.394 316.668 140.155 319.856C140.916 323.045 143.534 332.847 140.203 335.702C136.872 338.558 133.017 346.171 132.684 349.027C132.351 351.882 130.495 361.97 131.495 363.969C132.494 365.967 131.827 374.771 134.873 372.867C137.918 370.964 143.01 365.777 144.105 361.637C145.199 357.545 146.675 349.36 147.579 345.791C148.483 342.222 151.814 333.323 151.814 329.374C151.814 325.424 153.67 315.098 157.239 313.956C160.808 312.766 167.184 304.534 170.61 303.439C174.036 302.345 178.224 299.394 184.124 297.538C190.025 295.682 192.976 292.494 196.212 293.446C199.4 294.398 201.018 291.114 202.065 289.068C203.111 287.069 203.968 289.068 206.49 286.879C209.012 284.69 208.203 283.548 209.345 280.503C210.487 277.457 213.961 277.124 212.867 274.269C211.772 271.414 213.771 269.367 217.102 269.51C220.385 269.653 224.335 265.894 225.287 263.371C226.238 260.897 226.619 254.806 229.808 256.424C232.996 257.994 236.422 254.854 236.422 254.854C236.422 254.854 240.086 248.525 243.036 247.668C245.987 246.812 244.083 249.714 248.413 249.667C252.791 249.619 254.409 246.431 259.216 245.669C264.022 244.908 266.829 246.05 266.829 246.05C266.829 246.05 270.161 246.05 269.637 242.719C269.161 239.388 269.209 233.63 272.445 231.489C275.681 229.347 278.25 227.063 285.055 226.302C291.812 225.493 294.239 226.825 298.808 224.827C303.328 222.876 305.85 222.638 309.657 221.115C313.511 219.592 318.841 218.022 318.889 220.829C318.889 223.637 317.508 224.922 313.226 225.778C308.895 226.635 303.423 228.919 303.661 232.107C303.899 235.296 302.329 238.198 308.134 235.2C313.94 232.203 316.7 231.394 320.649 231.013C324.599 230.632 327.264 230.442 330.31 230.394C333.355 230.347 337.828 230.061 337.733 227.492C337.638 224.874 331.357 223.447 328.549 221.448C325.741 219.449 322.6 216.023 322.981 212.359C323.362 208.743 322.22 207.601 324.837 206.173C327.454 204.745 328.263 202.747 328.215 200.796C328.168 198.845 332.308 200.415 334.544 197.703C336.733 195.038 338.304 191.754 335.687 190.612C333.117 189.47 324.361 190.945 319.793 190.945C315.224 190.945 307.659 192.087 305.85 193.134C303.994 194.181 302.995 196.846 299.045 197.798C295.096 198.749 289.385 201.081 291.86 199.178C294.382 197.274 297.047 196.037 299.854 194.134C302.662 192.23 307.801 190.803 312.941 189.423C318.08 188.043 323.98 188.423 326.217 187.091C328.453 185.758 330.881 181.571 335.687 182.475C340.493 183.332 352.294 186.71 358.528 188.043C364.762 189.375 369.996 185.378 375.897 184.664C381.798 183.95 392.076 184.474 395.788 181.761C399.5 179.049 398.738 178.335 400.737 176.003C402.735 173.672 404.782 167.914 402.736 167.676C400.642 167.438 399.643 164.012 398.072 163.869C396.502 163.726 390.173 164.012 392.504 163.155C394.884 162.298 402.783 161.252 401.165 159.348C399.499 157.492 391.22 154.019 390.268 150.497C389.316 146.976 387.27 142.122 388.793 141.361C390.315 140.599 392.504 142.17 393.123 137.744C393.742 133.366 393.408 126.085 394.646 123.23C395.835 120.327 400.785 110.763 397.977 111.524C395.217 112.238 389.792 118.376 386.747 119.947C383.701 121.517 375.231 123.468 374.564 121.184C373.851 118.9 370.995 115.141 373.803 112.619C376.563 110.144 378.229 106.004 381.227 103.815C384.272 101.626 379.276 101.436 378.514 99.1041C377.753 96.7724 382.131 94.5834 379.561 92.442C376.991 90.3006 372.376 90.9193 371.186 88.302C369.996 85.6848 368.854 84.5427 365.713 86.922C362.573 89.3013 354.102 101.198 348.582 101.579C343.11 102.007 339.731 104.434 338.304 105.909C336.876 107.336 338.827 112.904 336.734 115.379C334.64 117.805 320.935 128.607 318.08 128.988C315.224 129.369 307.849 130.559 305.707 132.319C303.614 134.08 302.9 137.459 299.997 140.504C297.094 143.55 292.669 149.974 288.291 151.925C283.865 153.923 280.154 151.592 280.677 148.736C281.2 145.881 284.103 137.839 287.815 135.412C291.527 133.033 298.284 126.656 297.998 123.04C297.713 119.423 294.191 121.708 293.002 118.805C291.812 115.902 289.005 113.999 291.336 111.572C293.668 109.145 295.143 107.574 293.62 103.91C292.098 100.246 287.386 99.913 287.672 97.5337C287.958 95.1544 291.717 94.1551 294.762 91.0144C297.808 87.8738 295.524 87.4455 299.616 83.8289C303.709 80.26 315.51 73.0745 321.22 71.8372C326.931 70.6 338.494 72.1227 340.921 69.4103C343.348 66.6979 346.441 66.3172 352.104 65.3179C357.767 64.3186 358.337 61.9393 364.381 61.4158C370.424 60.8448 369.568 59.7503 371.995 58.751C374.422 57.7517 378.181 56.5145 380.703 58.7034C383.178 60.8448 391.077 62.5579 394.646 57.8945C398.215 53.231 395.598 53.8972 400.213 51.7559C404.829 49.6145 412.015 44.4276 409.873 42.7145C407.732 41.0014 407.399 41.8104 403.449 44.6179C399.5 47.4255 395.598 47.8538 391.886 48.8055C388.222 49.8048 379.799 54.849 381.655 51.7559C383.558 48.6628 390.03 48.1869 392.219 45.4269C394.456 42.6669 394.598 38.86 397.311 36.7662C400.023 34.6724 409.873 30.9607 409.826 28.7241C409.778 26.4876 406.4 26.1545 402.307 28.0104C398.215 29.8662 393.409 32.3407 391.362 34.72C389.316 37.0993 386.604 39.1931 382.94 40.1448C379.275 41.0966 373.327 43.9041 370.995 43.4283C368.664 42.9048 367.95 38.0035 368.14 36.1476C368.331 34.2918 368.426 29.5807 365.475 28.8669C362.572 28.1531 359.242 27.9628 360.336 24.9173C361.431 21.8718 361.193 20.0635 365.285 19.1594C369.378 18.2552 372.328 16.6373 375.992 13.6869C379.656 10.7366 378.704 8.64279 383.32 6.64417C387.936 4.64555 389.602 2.59935 386.604 -6.01374C383.606 -14.5793 269.066 6.31107 269.066 6.31107L94.2342 188.709C94.2342 188.709 91.1887 209.266 90.7129 212.883C90.237 216.499 79.6257 227.349 78.0554 230.727C76.485 234.106 79.8634 233.725 78.3882 236.343C76.913 239.007 68.8234 247.002 66.5393 252.189C64.2076 257.376 62.2567 260.802 60.7339 263.609C59.2112 266.417 51.4547 281.549 50.741 283.596C50.0272 285.594 43.4602 300.679 42.8891 302.535C42.3181 304.391 36.988 314.431 38.3205 314.86C39.6529 315.288 41.1281 312.242 42.5081 310.529C43.8881 308.769 47.9333 298.109 48.885 296.682C49.8368 295.254 53.8336 284.071 55.0232 282.073C56.2129 280.074 58.3066 275.078 58.5446 277.076C58.7825 279.027 55.2137 288.259 53.9289 291.257C52.5964 294.255 46.2677 306.627 46.3628 310.387C46.458 314.098 45.2206 320.284 43.8406 323.14C42.4606 325.947 40.6525 331.515 40.4146 332.276C40.129 332.99 38.3683 343.602 36.7503 345.362C35.1324 347.123 33.0389 355.927 31.7065 357.735C30.3741 359.496 28.9938 368.489 28.9938 368.489C28.9938 368.489 28.7557 381.29 29.4219 384.288C30.1357 387.286 30.5168 396.375 30.5168 396.375C30.5168 396.375 31.7065 404.845 32.2775 407.7C32.8485 410.555 33.4196 420.786 35.8941 421.31C38.321 421.833 43.7457 418.74 44.6498 420.977C45.5539 423.213 46.601 427.972 46.601 427.972C46.601 427.972 46.8389 436.728 47.172 439.012C47.4575 441.296 51.2643 454.811 51.2643 454.811C51.2643 454.811 57.0223 463.852 58.4499 464.804C59.8775 465.755 64.2074 466.231 64.5405 469.086C64.9212 471.942 64.065 472.988 64.3505 476.415C64.5885 479.888 66.5868 488.644 67.0627 492.451C67.5385 496.258 67.4437 498.971 66.2065 501.588C64.9692 504.205 64.8259 508.393 66.8722 510.296C68.9184 512.199 72.5828 513.199 73.1539 517.672C73.7249 522.145 72.2495 523.287 73.582 525.571C74.9144 527.808 75.3901 528.331 78.1977 531.091C81.0053 533.851 83.4797 533.28 83.5273 536.944C83.5749 540.608 84.4314 544.796 87.0963 545.7C89.7611 546.604 88.3337 543.083 89.6661 540.513C90.9985 537.944 91.9981 534.089 94.6629 534.137C97.3277 534.184 99.9447 533.708 100.992 537.277C102.039 540.894 103.276 548.936 103.799 553.695C104.323 558.453 109.129 565.163 109.129 565.163L112.412 548.555Z" fill="#83B84D"/>
<path fill-rule="evenodd" clip-rule="evenodd" d="M342.301 189.376C343.348 191.137 344.919 192.802 346.299 194.42C347.679 196.038 351.628 195.705 351.724 194.087C351.866 192.469 350.296 190.09 348.916 189.661C347.583 189.233 345.394 187.52 344.347 187.758C343.253 187.996 341.54 188.091 342.301 189.376Z" fill="#83B84D"/>
<path fill-rule="evenodd" clip-rule="evenodd" d="M326.598 211.362C326.265 213.694 328.739 216.502 329.786 217.311C330.833 218.167 335.545 218.262 335.592 217.215C335.687 216.121 333.165 216.644 331.88 215.407C330.548 214.17 326.932 208.84 326.598 211.362Z" fill="#83B84D"/>
<path fill-rule="evenodd" clip-rule="evenodd" d="M340.255 221.305C338.922 223.066 338.494 225.302 340.683 226.159C342.824 227.015 343.728 225.112 345.965 224.541C348.202 223.97 346.584 222.304 347.298 220.449C348.059 218.593 351.628 215.69 349.724 215.452C347.773 215.214 347.155 216.309 344.585 217.451C341.968 218.593 341.635 219.544 340.255 221.305Z" fill="#83B84D"/>
<path fill-rule="evenodd" clip-rule="evenodd" d="M371.757 199.131C369.473 201.273 369.044 204.128 366.998 204.937C364.904 205.746 361.811 205.984 361.478 208.744C361.145 211.504 365.475 210.695 367.95 212.027C370.424 213.359 378.038 214.835 379.227 216.262C380.417 217.642 380.893 218.308 379.989 219.403C379.085 220.497 376.611 221.925 378.514 222.163C380.418 222.401 381.464 220.164 383.748 219.165C386.08 218.213 387.175 217.595 388.65 217.595C390.173 217.595 390.22 218.832 388.412 220.688C386.604 222.544 386.223 223.353 387.936 224.542C389.602 225.732 391.315 227.255 393.932 224.399C396.597 221.497 399.071 219.165 397.453 217.357C395.835 215.548 392.695 214.787 394.408 214.168C396.121 213.55 399.309 212.265 397.834 211.313C396.359 210.314 392.79 209.743 394.312 208.696C395.788 207.649 400.261 204.318 398.691 203.462C397.12 202.653 394.455 203.128 392.647 203.271C390.839 203.366 385.081 202.653 385.985 200.892C386.889 199.131 389.316 197.323 389.316 197.323C389.316 197.323 386.128 196.371 383.891 197.037C381.702 197.704 384.272 194.658 386.936 193.183C389.601 191.708 396.501 188.139 394.931 186.426C393.361 184.76 391.6 183.761 388.84 185.95C386.127 188.139 380.56 192.85 378.561 193.897C376.515 195.134 374.041 196.99 371.757 199.131Z" fill="#83B84D"/>
<path fill-rule="evenodd" clip-rule="evenodd" d="M368.188 63.5581C365.951 64.3195 364.524 64.7478 361.478 66.2705C358.433 67.7933 353.008 68.0788 353.484 69.8871C353.96 71.6953 352.627 76.1209 355.054 74.836C357.529 73.5988 358.813 71.9809 360.907 71.8381C363.001 71.6954 363.334 71.3146 364.809 74.265C366.285 77.2153 367.093 76.7395 369.425 73.456C371.757 70.1726 374.231 67.365 372.423 65.6519C370.615 63.9388 369.806 62.9871 368.188 63.5581Z" fill="#83B84D"/>
<path fill-rule="evenodd" clip-rule="evenodd" d="M380.751 75.1212C380.847 76.6439 384.463 79.3563 387.746 78.8329C391.077 78.3094 394.932 75.9777 394.218 78.9757C393.504 81.9736 392.648 85.6377 392.648 85.6377C392.648 85.6377 389.031 90.3488 389.888 91.3957C390.744 92.4426 392.362 89.4922 393.838 92.5853C395.313 95.6308 399.024 100.009 400.785 99.7232C402.546 99.4377 402.118 94.917 402.879 93.0136C403.593 91.1101 401.88 85.257 403.926 86.9226C405.972 88.5881 407.447 93.8701 408.922 94.1556C410.397 94.4887 415.822 91.4908 415.822 91.4908C415.822 91.4908 419.058 88.7308 419.01 86.5419C418.915 84.4005 417.297 75.597 419.248 74.9308C421.199 74.2646 423.436 74.5502 425.53 74.3598C427.624 74.1695 428.909 74.8832 428.433 76.4536C427.957 78.0239 426.863 79.8322 427.291 81.4501C427.719 83.0681 428.908 83.4488 432.144 82.0212C435.38 80.5936 444.231 80.2605 445.183 77.5005C446.087 74.7405 443.47 72.5515 441.947 71.3143C440.424 70.0771 442.09 67.7929 441.281 66.7936C440.424 65.7943 437.188 62.1778 438.854 61.4164C440.472 60.655 443.184 58.9895 444.993 57.7047C446.801 56.4198 449.703 51.9943 448.228 49.5674C446.753 47.1405 444.279 45.6178 445.564 43.9523C446.849 42.2868 443.708 42.0964 445.088 40.8116C446.468 39.5267 446.849 36.624 447.943 36.4812C449.037 36.3385 451.417 33.0074 449.894 32.1033C448.371 31.1992 445.325 30.9612 443.993 30.0571C442.708 29.1054 441.091 27.8681 439.52 28.5343C437.95 29.2005 431.716 31.5323 430.669 31.913C429.622 32.2937 422.913 36.3861 423.056 34.5302C423.198 32.6743 429.004 30.295 429.004 30.295C429.004 30.295 438.331 27.7254 439.758 26.5357C441.186 25.3461 440.044 25.1082 437.093 25.1082C434.143 25.1082 418.677 30.5805 418.677 30.5805C418.677 30.5805 409.922 33.3405 409.255 35.244C408.589 37.1474 407.209 39.6219 409.065 40.5737C410.921 41.5254 412.777 44.3805 414.062 44.6185C415.299 44.8564 419.201 45.4274 420.676 45.9033C422.151 46.3791 426.624 46.5695 425.197 47.664C423.769 48.7585 421.39 50.995 421.58 53.8502C421.77 56.7053 423.103 58.2757 421.009 60.6074C418.868 62.8916 416.917 64.6522 413.634 66.0322C410.35 67.4122 406.686 67.3646 404.973 69.7439C403.259 72.0757 397.121 73.2653 397.121 73.2653C397.121 73.2653 393.362 71.2191 391.458 70.6957C389.507 70.2198 387.461 69.7915 384.796 71.1716C382.179 72.4088 380.609 72.6467 380.751 75.1212Z" fill="#83B84D"/>
<path fill-rule="evenodd" clip-rule="evenodd" d="M412.919 56.8484C410.301 57.8002 405.543 56.4201 405.733 59.5132C405.923 62.6063 405.162 63.796 409.254 62.7015C413.299 61.607 415.298 60.9884 416.868 61.2263C418.438 61.4643 419.628 60.4174 417.677 58.7994C415.679 57.2767 415.821 55.8015 412.919 56.8484Z" fill="#83B84D"/>
<path fill-rule="evenodd" clip-rule="evenodd" d="M375.231 26.1571C376.611 26.5854 374.945 30.8206 377.562 29.8689C380.179 28.8695 382.178 28.7744 380.798 30.2971C379.418 31.8199 377.848 34.675 377.848 34.675C377.848 34.675 381.94 37.8157 386.984 33.533C391.981 29.2502 387.46 31.6771 385.557 30.6778C383.654 29.6785 383.178 28.3936 386.08 27.6799C388.983 26.9661 390.982 21.6364 393.694 21.113C396.406 20.6371 399.024 19.2096 402.593 17.9723C406.162 16.7351 409.778 14.4509 412.681 14.5937C415.584 14.7364 421.627 12.4999 419.2 12.1192C416.773 11.6909 408.446 14.0702 408.017 12.3571C407.589 10.644 405.876 9.35919 410.016 8.50264C414.156 7.69368 415.108 6.21852 417.868 4.83852C420.628 3.45853 425.101 -0.348362 423.863 -1.34767C422.626 -2.39457 421.342 -1.44286 418.201 -0.729065C415.013 -0.0152723 409.54 1.1268 406.447 1.60266C403.402 2.07853 398.643 1.93578 397.834 4.02957C397.025 6.07577 400.261 5.59991 399.499 6.93233C398.738 8.26474 395.455 11.2627 392.98 11.3578C390.506 11.453 387.984 10.9295 387.461 13.3089C386.937 15.7357 388.602 18.4006 386.604 18.3054C384.605 18.2578 383.606 16.4495 382.797 14.784C382.035 13.1185 381.322 12.1668 379.085 14.3558C376.849 16.5447 376.182 19.1619 373.327 19.9233C370.519 20.6371 366.141 20.7323 368.568 22.3502C370.995 23.9206 376.182 21.3509 374.66 23.4923C373.232 25.5861 372.946 25.4909 375.231 26.1571Z" fill="#83B84D"/>
<path fill-rule="evenodd" clip-rule="evenodd" d="M412.967 17.4464C411.063 18.2078 405.591 20.5395 406.019 22.6809C406.447 24.7747 407.114 26.1071 410.017 24.3464C412.919 22.5857 414.68 23.4899 415.917 24.6319C417.154 25.774 419.866 24.4416 422.103 24.2513C424.34 24.0609 426.672 25.1554 426.672 25.1554C426.672 25.1554 431.43 23.2995 433.429 22.5857C435.427 21.8719 435.57 18.8264 433 18.874C430.431 18.9216 423.626 22.3954 423.15 20.4444C422.722 18.4933 423.674 20.4443 426.101 18.3981C428.528 16.3044 426.433 15.8761 423.388 16.0188C420.39 16.1616 415.774 16.3044 412.967 17.4464Z" fill="#83B84D"/>
<path fill-rule="evenodd" clip-rule="evenodd" d="M440.519 19.6356C442.422 22.4908 443.993 22.8239 447.514 24.4418C450.988 26.0598 454.319 26.8687 457.65 25.7266C460.981 24.5846 463.503 21.8721 461.837 21.2535C460.172 20.6349 454.937 20.4446 454.747 18.9218C454.556 17.3515 454.271 14.877 456.365 14.2584C458.459 13.6397 461.932 10.6418 459.553 10.2611C457.221 9.88045 454.129 10.4515 452.177 12.4025C450.179 14.3535 448.133 16.7804 445.611 16.6377C443.136 16.4949 440.091 16.3046 440.281 17.7322C440.519 19.1597 438.663 16.828 440.519 19.6356Z" fill="#83B84D"/>
<path fill-rule="evenodd" clip-rule="evenodd" d="M492.293 71.0765C488.296 72.2662 485.631 71.1241 482.252 73.5034C478.921 75.8827 476.97 76.6917 477.161 78.0241C477.351 79.3565 476.447 79.9751 474.496 81.1648C472.497 82.3544 469.594 83.211 470.403 85.3999C471.212 87.5889 472.116 89.9206 470.831 91.7765C469.594 93.6323 467.833 96.202 468.976 97.4392C470.165 98.6765 470.308 99.3903 469.642 102.483C468.928 105.529 469.975 106.481 469.975 106.481C469.975 106.481 470.213 106.385 469.88 109.621C469.547 112.857 469.927 113.19 470.308 116.426C470.689 119.662 470.641 123.516 473.544 123.897C476.447 124.278 479.825 124.706 482.68 128.085C485.536 131.463 487.392 134.509 490.866 131.749C494.339 128.989 495.101 125.182 497.718 123.421C500.335 121.613 503.238 118.853 503.286 116.902C503.333 114.951 504.237 113.047 506.379 112.667C508.568 112.286 513.421 108.527 514.23 105.624C515.039 102.769 517.133 99.7234 519.227 99.8185C521.321 99.8661 524.414 97.7247 526.84 96.7254C529.267 95.7261 533.788 97.5344 533.788 97.5344C533.788 97.5344 541.782 95.0124 544.067 93.5848C546.351 92.1572 552.68 87.1606 552.68 87.1606C552.68 87.1606 554.821 82.0689 558.485 83.3537C562.149 84.6386 568.764 82.4496 573.38 81.8786C578.043 81.3075 580.042 78.8331 581.946 77.9289C583.849 77.0724 589.94 75.74 589.94 75.74C589.94 75.74 588.845 71.6 585.847 72.171C582.849 72.742 575.045 73.3131 575.283 71.8379C575.521 70.3627 575.283 72.0758 578.138 71.5048C581.041 70.9338 581.945 70.22 582.136 68.2689C582.326 66.3655 584.039 63.7958 585.229 66.6986C586.371 69.6013 586.99 71.7903 589.464 71.1241C591.891 70.4579 596.316 68.9351 594.794 66.3179C593.271 63.7007 590.13 64.0814 590.463 62.6062C590.796 61.131 593.08 60.8931 592.842 58.8945C592.604 56.8483 592.224 56.3248 594.937 54.9448C597.601 53.5648 599.124 52.8986 598.458 50.3765C597.839 47.9021 595.317 47.7117 596.316 44.7138C597.315 41.7159 597.601 41.6683 594.794 41.24C591.938 40.8593 592.414 39.2414 594.27 38.7655C596.126 38.2896 598.648 36.1959 597.173 35.9103C595.698 35.6248 590.558 32.8648 590.558 32.8648C590.558 32.8648 592.034 28.6773 593.033 26.9642C594.032 25.2511 593.937 25.6793 596.84 23.1097C599.743 20.5876 604.073 16.3049 600.076 16.3524C596.126 16.4 586.228 19.9214 586.18 18.6366C586.085 17.3518 582.707 12.0221 579.519 11.4987C576.33 10.9752 564.957 9.02417 564.957 9.02417C564.957 9.02417 554.726 10.5469 554.155 11.4035C553.584 12.26 549.111 13.2593 548.349 11.5462C547.636 9.88071 543.115 9.9759 539.546 10.5945C535.977 11.1656 521.892 12.9738 521.892 12.9738L510.042 16.8283C510.042 16.8283 493.435 15.2104 493.15 17.3517C492.864 19.4931 494.339 22.3483 494.339 22.3483L485.774 27.6304C485.774 27.6304 487.487 27.8683 490.77 29.1531C494.101 30.438 498.242 30.1524 499.241 31.8655C500.24 33.6262 503.333 38.1469 500.478 42.3345C497.671 46.5696 491.484 53.1365 491.484 53.1365C491.484 53.1365 490.961 55.4683 493.197 56.8483C495.481 58.2283 498.86 58.4662 497.813 60.0365C496.814 61.6545 493.625 60.0365 490.627 59.9889C487.63 59.9889 483.204 60.0841 484.061 63.1296C484.917 66.1751 485.726 67.6503 489.533 66.5558C493.34 65.4614 496.385 65.0331 495.196 66.6986C494.006 68.5545 496.243 69.8869 492.293 71.0765Z" fill="#83B84D"/>
<path fill-rule="evenodd" clip-rule="evenodd" d="M531.313 2.88525C527.792 1.60043 522.652 -0.112667 519.559 0.886642C516.466 1.93354 504.998 1.7432 502.476 2.02872C499.954 2.26665 493.101 0.696307 488.866 1.69562C484.631 2.69493 482.585 4.40802 479.872 4.97905C477.16 5.59767 468.357 3.74182 469.308 1.79079C470.26 -0.160241 464.122 -3.06301 460.933 -3.11059C457.745 -3.15818 441.328 -0.87404 441.328 -0.87404C441.328 -0.87404 434.285 1.07699 431.097 1.64802C427.908 2.26664 428.527 6.31146 428.527 6.31146C428.527 6.31146 434.142 8.54803 436.997 6.07355C439.9 3.59907 445.849 2.4094 450.512 2.7425C455.176 3.0756 464.645 1.60044 465.359 5.5025C466.073 9.40457 468.404 10.2611 465.501 11.7839C462.599 13.3542 462.694 17.0659 462.694 17.0659C462.694 17.0659 473.591 21.7294 476.779 19.4928C479.968 17.2563 488.724 9.54734 495.957 12.3549C503.142 15.1625 511.66 12.4501 511.66 12.4501C511.66 12.4501 517.132 8.11973 523.223 8.69077C529.267 9.2618 540.545 6.26387 531.313 2.88525Z" fill="#83B84D"/>
<path fill-rule="evenodd" clip-rule="evenodd" d="M898.678 703.784C898.678 703.784 912.193 718.583 915.429 726.055C918.665 733.526 917.57 738.665 919.997 744.613C922.424 750.561 925.327 753.75 922.947 756.319C920.568 758.889 919.569 762.553 921.282 768.121C922.995 773.688 923.281 782.825 923.281 782.825L909.719 803.81C909.719 803.81 889.066 831.315 891.779 839.785C894.491 848.208 898.631 857.868 897.964 865.577C897.298 873.334 899.393 869.574 895.443 882.518C891.446 895.461 887.829 904.836 889.589 909.118C891.35 913.401 895.823 920.206 892.492 923.109C889.161 926.012 891.398 928.438 888.971 932.626C886.544 936.814 874.838 943.523 882.166 945.189C889.494 946.854 903.818 937.004 908.481 936.576C913.145 936.147 922.138 931.198 925.469 927.629C928.8 924.06 944.266 907.976 950.88 903.36C957.495 898.745 971.961 879.425 971.961 879.425L989.092 856.298C989.092 856.298 1003.94 845.115 1007.08 837.692C1010.22 830.316 1017.12 808.95 1019.78 805.428C1022.5 801.907 1031.3 795.435 1034.39 789.439C1037.49 783.443 1040.87 773.212 1047.72 767.692C1054.52 762.172 1060.23 741.901 1060.23 741.901C1060.23 741.901 1066.94 727.149 1067.51 721.724C1068.08 716.299 1064.52 706.972 1066.75 702.785C1069.04 698.597 1072.32 682.894 1072.32 682.894L1071.75 667.761C1071.75 667.761 1077.84 639.353 1083.12 626.409C1088.4 613.466 1095.49 592.956 1097.07 586.199C1098.68 579.442 1101.44 563.31 1102.92 555.315C1104.39 547.321 1101.25 538.47 1102.54 528.572C1103.82 518.722 1104.54 507.587 1104.96 502.162C1105.39 496.737 1106.34 481.319 1103.73 484.079C1101.16 486.839 1097.78 495.071 1096.83 499.735C1095.88 504.351 1095.49 510.727 1093.21 508.681C1090.93 506.635 1084.79 501.495 1084.79 501.495C1084.79 501.495 1087.98 493.691 1086.17 492.073C1084.31 490.455 1074.94 476.465 1070.94 475.418C1066.94 474.371 1065.42 466.187 1064.33 462.332C1063.23 458.478 1054.86 447.247 1054.86 447.247C1054.86 447.247 1043.77 427.071 1042.86 423.121C1041.96 419.124 1037.01 412.414 1035.54 411.225C1034.11 410.035 1024.73 392.285 1021.69 388.574C1018.64 384.862 1009.03 369.967 1009.03 369.967C1009.03 369.967 998.086 352.265 999.942 354.597C1001.8 356.929 1009.36 366.732 1011.03 366.256C1012.74 365.827 1007.27 353.693 1008.94 354.597C1010.55 355.501 1014.03 361.973 1015.74 363.924C1017.45 365.923 1029.68 378.818 1030.35 382.768C1031.02 386.718 1031.35 389.24 1035.06 392.523C1038.77 395.807 1046.86 401.327 1047.67 406.656C1048.48 411.986 1054.43 422.788 1056.95 425.643C1059.47 428.498 1062.61 432.876 1067.28 438.777C1071.89 444.678 1077.08 456.622 1077.08 456.622C1077.08 456.622 1082.27 473.896 1083.46 478.607C1084.64 483.318 1088.36 492.121 1089.64 486.268C1090.93 480.415 1091.12 475.275 1093.16 471.849C1095.21 468.423 1094.4 463.189 1095.73 456.907C1097.07 450.626 1095.35 440.252 1097.26 439.3C1099.16 438.301 1098.64 431.354 1098.64 425.881C1098.64 420.456 1101.59 413.128 1102.44 410.178C1103.3 407.227 1076.94 327.092 1078.22 331.803C1079.55 336.514 1077.6 341.939 1076.36 344.366C1075.13 346.793 1075.46 353.169 1075.79 355.311C1076.13 357.5 1070.89 356.12 1067.94 353.407C1064.99 350.695 1058.85 343.129 1058.85 343.129C1058.85 343.129 1050.05 331.994 1047.77 328.472C1045.48 324.951 1043.34 314.006 1046.48 316.909C1049.62 319.812 1053 324.427 1057.19 327.901C1061.33 331.375 1066.9 335.61 1067.61 331.946C1068.37 328.282 1069.32 318.146 1072.46 315.053C1075.6 311.96 1037.11 162.872 1028.4 154.402C1019.69 145.932 844.43 36.7692 833.247 30.8685C822.065 25.0154 751.875 -3.10802 750.257 -2.34665C748.64 -1.53768 742.072 14.1182 745.165 16.4023C748.306 18.6864 758.918 23.5402 758.918 23.5402C758.918 23.5402 774.384 27.1568 778.191 30.2499C781.997 33.343 782.521 35.294 779.142 34.6754C775.763 34.0568 768.958 34.1995 772.385 35.8175C775.811 37.483 783.948 41.9085 785.09 45.0016C786.232 48.0471 786.518 53.8526 786.518 53.8526C786.518 53.8526 789.421 58.4684 791.324 60.3243C793.228 62.1802 793.132 65.654 795.083 67.7478C797.034 69.8416 803.22 73.4105 803.411 75.3615C803.649 77.3126 793.561 75.9802 795.131 77.8836C796.701 79.787 809.502 80.8815 806.79 83.0705C804.03 85.2595 791.467 81.6429 788.136 78.3119C784.805 74.9809 772.004 73.5533 775.145 72.316C778.286 71.0788 787.803 75.5995 787.041 71.5071C786.232 67.4147 787.279 62.2754 782.473 61.6091C777.667 60.9905 772.623 59.9436 767.341 60.0388C762.106 60.134 746.879 61.1333 745.451 59.2774C744.071 57.4692 745.451 56.2319 741.121 54.8995C736.79 53.5671 730.462 55.9464 727.035 59.3726C723.609 62.7512 722.229 73.1726 722.229 73.1726C722.229 73.1726 725.179 84.5933 727.13 87.9719C729.081 91.3505 732.888 101.582 732.888 101.582C732.888 101.582 724.561 110.623 723.704 114.335C722.847 118.046 719.849 121.139 723.561 124.851C727.273 128.563 733.792 138.746 735.791 138.794C737.79 138.841 739.931 145.313 743.072 147.264C746.213 149.263 748.782 149.929 751.542 146.646C754.302 143.41 755.682 134.987 757.919 136.272C760.108 137.557 774.764 150.215 777.048 152.832C779.333 155.401 783.235 157.21 779.856 159.113C776.477 161.017 771.195 162.872 774.288 164.3C777.381 165.728 779.332 163.539 782.616 162.635C785.899 161.683 790.706 161.635 790.706 161.635C790.706 161.635 794.798 159.161 793.941 154.926C793.037 150.69 790.753 143.124 787.565 139.793C784.329 136.415 786.137 135.225 784.662 130.895C783.187 126.564 781.474 123.661 779.142 123.138C776.81 122.615 766.627 116.095 766.103 112.907C765.58 109.766 761.535 107.625 763.201 104.722C764.819 101.867 769.197 99.0119 765.057 96.4898C760.917 93.9677 755.301 86.0684 758.966 85.1167C762.63 84.1174 766.199 85.4974 767.816 86.2588C769.434 86.9726 774.716 101.582 774.716 101.582C774.716 101.582 781.521 114.668 785.471 116.952C789.42 119.284 798.652 121.71 798.652 121.71C798.652 121.71 805.457 113.621 809.122 113.621C812.786 113.621 821.637 112.812 819.828 116.381C818.02 119.95 810.501 122.472 810.501 122.472C810.501 122.472 802.554 123.709 804.791 127.278C807.028 130.847 809.693 132.179 813.261 133.417C816.83 134.701 820.827 137.795 818.733 139.46C816.64 141.126 812.548 135.939 810.168 137.89C807.789 139.841 811.453 145.646 811.453 145.646C811.453 145.646 823.873 154.212 822.398 157.828C820.97 161.445 816.592 165.442 816.592 165.442C816.592 165.442 811.168 159.827 808.503 161.54C805.838 163.253 801.507 171.248 801.507 171.248C801.507 171.248 794.846 168.821 791.895 168.535C788.945 168.297 788.183 171.819 784.329 172.247C780.474 172.675 777.381 168.583 775.716 169.011C774.05 169.487 769.815 164.919 769.815 162.349C769.815 159.779 772.433 158.447 770.529 156.068C768.626 153.688 765.675 148.692 763.534 150.405C761.392 152.118 758.823 152.832 760.108 156.115C761.392 159.399 765.152 167.346 768.435 169.344C771.719 171.343 775.668 174.864 775.097 177.291C774.526 179.718 767.293 182.002 765.247 182.763C763.2 183.525 761.059 185.428 761.725 189.759C762.439 194.089 764.057 196.944 760.298 199.038C756.539 201.132 759.013 200.228 755.729 202.226C752.446 204.225 751.685 207.651 751.685 207.651C751.685 207.651 755.206 208.936 752.97 212.029C750.733 215.122 749.448 214.028 747.831 216.264C746.213 218.501 741.787 218.025 741.787 218.025C741.787 218.025 732.222 215.741 733.459 217.977C734.697 220.214 738.646 226.543 738.646 226.543C738.646 226.543 725.084 226.21 723.942 226.162C722.8 226.114 719.897 226.495 720.944 229.969C721.991 233.443 720.373 233.728 725.465 234.728C730.556 235.727 738.741 237.345 738.741 237.345C738.741 237.345 739.408 241.152 742.549 243.103C745.689 245.054 749.781 246.053 751.114 250.336C752.446 254.619 756.158 261.09 754.73 266.372C753.255 271.654 749.02 272.273 749.02 272.273C749.02 272.273 742.168 271.559 738.409 271.369C734.649 271.179 726.036 271.75 724.513 272.178C722.99 272.606 716.518 274.747 714.044 273.272C711.569 271.797 708.952 271.987 706.621 274.367C704.289 276.794 700.339 277.936 703.099 280.601C705.859 283.265 707.239 287.453 708.096 292.45C708.952 297.446 711.475 299.635 710.951 303.299C710.428 306.963 709.143 306.249 708.714 312.293C708.286 318.336 708.857 321.382 711.76 322.286C714.663 323.19 714.663 328.044 715.995 331.851C717.328 335.658 722.134 334.706 724.941 334.183C727.749 333.659 733.792 334.421 733.792 334.421C733.792 334.421 740.93 341.892 744.214 339.655C747.497 337.466 753.969 336.705 753.969 336.705L768.15 332.755C768.15 332.755 770.577 323.571 773.812 319.907C777.096 316.29 776.287 312.293 776.287 312.293C776.287 312.293 772.433 307.677 774.098 304.822C775.716 301.967 774.574 294.401 778.143 292.069C781.712 289.737 784.186 291.26 786.994 286.739C789.801 282.219 788.183 278.507 788.041 273.701C787.945 268.894 787.898 265.421 792.038 265.992C796.178 266.563 799.985 268.371 803.363 267.752C806.789 267.134 809.93 263.232 812.072 260.995C814.213 258.759 813.309 254.856 817.259 256.332C821.256 257.807 824.301 253.381 826.585 257.997C828.822 262.613 827.727 265.421 831.82 267.562C835.912 269.656 845.906 272.178 847.714 274.938C849.522 277.698 851.901 279.601 855.232 279.934C858.611 280.267 862.323 282.837 862.323 282.837C862.323 282.837 869.223 286.787 871.887 288.167C874.505 289.547 878.359 294.067 878.359 294.067C878.359 294.067 881.643 297.636 880.786 299.254C879.929 300.825 876.694 302.11 878.074 303.727C879.454 305.298 883.594 305.012 884.45 301.634C885.307 298.255 886.163 295.162 884.641 292.259C883.118 289.309 877.978 286.692 878.407 284.598C878.835 282.504 878.883 281.647 881.595 283.075C884.308 284.503 888.495 287.976 888.447 285.359C888.4 282.694 888.257 279.601 885.164 279.078C882.071 278.554 868.414 276.175 868.414 274.843C868.366 273.51 866.891 270.607 866.891 270.607C866.891 270.607 861.133 272.939 858.611 269.894C856.089 266.848 849.427 261.138 847.19 259.187C844.954 257.188 839.814 254.999 837.483 254.428C835.151 253.857 831.201 249.384 832.058 248.052C832.914 246.767 830.487 245.958 832.105 243.579C833.723 241.152 836.103 236.012 837.721 240.485C839.339 244.959 840.29 246.91 842.146 246.101C844.002 245.292 847.142 246.481 848.522 248.194C849.902 249.908 855.613 253.952 855.613 253.952C855.613 253.952 864.94 258.283 866.558 258.425C868.128 258.568 874.362 260.852 877.169 261.994C880.025 263.136 884.45 262.137 886.306 265.896C888.162 269.656 887.638 272.749 890.113 275.604C892.587 278.507 891.778 279.411 896.109 283.503C900.391 287.596 903.532 290.023 906.387 292.307C909.195 294.591 911.289 297.97 911.289 297.97C911.289 297.97 909.861 298.921 913.621 302.395C917.332 305.869 921.901 308.439 922.662 305.203C923.423 301.967 922.091 298.731 923.613 297.351C925.136 296.018 925.945 288.69 923.328 288.167C920.711 287.643 919.95 290.594 917.856 289.309C915.714 288.024 914.382 282.456 912.811 281.124C911.241 279.792 906.673 277.793 907.91 275.842C909.148 273.891 910.67 275.461 911.574 273.225C912.478 270.988 908.815 270.798 913.24 268.085C917.666 265.373 917.808 265.611 921.044 266.515C924.28 267.419 926.802 262.994 926.802 262.994C926.802 262.994 931.941 257.616 933.749 261.471C935.605 265.325 936.938 267.039 933.321 267.181C929.705 267.324 925.565 266.943 925.422 270.37C925.279 273.796 926.516 275.794 929.371 279.173C932.226 282.552 936.842 287.739 936.747 289.499C936.652 291.26 940.079 291.022 943.505 293.354C946.931 295.685 946.027 298.969 948.787 299.302C951.547 299.635 955.829 298.778 955.829 298.778C955.829 298.778 960.303 301.634 961.302 300.539C962.301 299.492 961.778 293.925 964.395 294.401C967.012 294.876 968.583 296.97 972.009 296.161C975.435 295.352 974.959 293.021 977.005 289.88C979.051 286.739 979.146 284.17 981.859 286.596C984.571 289.023 983.62 292.687 987.284 296.114C990.948 299.54 993.232 311.627 993.232 311.627C993.232 311.627 998.895 323.381 998.847 326.997C998.8 330.614 1001.08 336.086 999.418 338.703C997.753 341.368 993.661 345.46 990.52 343.367C987.379 341.32 985.571 337.656 983.858 340.797C982.145 343.938 980.765 346.507 976.815 347.316C972.818 348.125 964.204 349.505 959.874 349.838C955.591 350.172 949.643 348.316 946.55 347.792C943.505 347.269 941.791 343.224 937.318 343.843C932.893 344.461 928.325 346.079 928.467 350.409C928.61 354.74 931.18 357.738 931.846 362.592C932.512 367.445 931.561 371.252 929.277 371.633C927.04 372.014 920.663 367.445 915.952 367.255C911.241 367.065 902.818 364.876 902.818 364.876C902.818 364.876 899.059 354.597 891.683 355.025C884.26 355.406 868.128 355.263 863.94 352.265C859.753 349.315 857.231 346.983 859.8 343.985C862.322 341.035 859.753 332.803 859.753 332.803C859.753 332.803 852.472 329.757 853.9 327.568C855.327 325.379 859.087 319.336 856.469 319.193C853.852 319.05 853.995 324.951 851.854 322.286C849.712 319.621 845.192 317.908 845.192 317.908C845.192 317.908 828.584 324.903 825.396 325.236C822.207 325.569 812.167 325.76 806.314 328.187C800.46 330.614 789.896 334.278 785.661 339.132C781.426 343.938 776.525 347.364 772.242 348.839C767.959 350.267 751.4 350.6 748.449 349.172C745.499 347.745 744.547 344.985 742.596 345.556C740.645 346.127 740.36 349.315 740.122 353.074C739.884 356.834 741.454 361.021 733.983 365.114C726.559 369.206 720.183 372.68 719.088 377.153C717.994 381.674 716.661 392.476 716.661 392.476C716.661 392.476 719.849 402.374 718.279 405.514C716.709 408.655 706.24 419.933 702.195 421.979C698.15 424.025 691.489 422.931 690.727 427.309C689.966 431.734 691.203 435.398 687.777 437.397C684.303 439.396 677.308 443.821 677.546 450.15C677.784 456.479 676.737 460.524 676.737 460.524C676.737 460.524 668.599 467.519 667.315 471.04C666.077 474.562 666.125 481.319 662.699 483.936C659.225 486.506 658.13 487.838 658.368 491.407C658.559 494.976 659.891 500.163 663.365 501.162C666.839 502.162 668.123 503.684 666.648 506.492C665.173 509.3 663.222 511.298 663.222 511.298L668.885 520.958L667.838 533.711L663.222 543.99C663.222 543.99 668.504 549.272 663.555 554.268C658.606 559.265 653.943 558.551 656.227 561.835C658.511 565.118 658.178 564.214 660.415 568.259C662.651 572.304 665.506 576.158 663.889 576.396C662.318 576.586 661.271 581.393 661.271 581.393L670.408 590.244L678.497 589.577C678.497 589.577 673.406 595.002 675.785 596.573C678.117 598.19 684.779 603.663 686.968 607.279C689.157 610.896 694.01 610.848 694.724 615.797C695.438 620.794 700.72 624.839 700.101 627.932C699.483 631.073 704.337 634.546 704.337 634.546L717.708 641.875C717.708 641.875 725.132 645.824 727.987 649.06C730.842 652.248 746.498 660.719 746.498 660.719C746.498 660.719 763.201 657.673 767.436 656.293C771.671 654.866 789.23 651.82 789.23 651.82C789.23 651.82 801.175 656.626 804.411 654.152C807.646 651.677 826.395 642.969 826.395 642.969C826.395 642.969 842.86 634.07 850.569 633.309C858.278 632.548 868.223 634.879 868.223 634.879C868.223 634.879 868.89 649.155 875.599 649.631C882.309 650.107 894.11 645.063 894.11 645.063C894.11 645.063 903.199 643.73 905.15 649.726C907.101 655.722 905.864 667.904 905.864 667.904C905.864 667.904 903.389 680.515 900.82 684.607C898.25 688.699 897.394 690.603 897.156 693.22C896.632 695.98 898.678 703.784 898.678 703.784Z" fill="#83B84D"/>
<path fill-rule="evenodd" clip-rule="evenodd" d="M909.433 217.072C911.48 220.736 915.857 225.637 914.144 227.255C912.431 228.825 911.67 231.014 913.193 232.965C914.716 234.917 917.476 237.105 917.333 241.103C917.19 245.1 919.046 251.143 919.046 251.143C919.046 251.143 926.374 257.425 929.705 257.901C932.989 258.376 939.984 254.522 939.984 254.522L946.884 244.719C946.884 244.719 958.875 244.672 962.825 244.576C966.775 244.481 971.01 242.959 970.629 238.961C970.296 234.917 966.822 226.874 962.587 224.923C958.352 222.972 936.7 215.501 936.7 215.501C936.7 215.501 931.799 218.785 931.751 222.068C931.703 225.352 929.372 224.876 927.326 222.021C925.28 219.118 922.234 219.641 921.806 216.834C921.377 214.026 923.186 210.172 919.379 211.932C915.572 213.741 914.049 209.934 911.242 210.79C908.482 211.647 908.958 212.884 909.1 214.312C909.243 215.597 907.387 213.408 909.433 217.072Z" fill="#83B84D"/>
<path fill-rule="evenodd" clip-rule="evenodd" d="M926.327 201.178C925.47 203.129 924.566 203.986 925.898 207.412C927.23 210.838 930.038 216.263 932.37 214.36C934.701 212.409 936.891 214.502 937.034 210.933C937.176 207.364 935.796 205.889 933.988 203.224C932.18 200.56 934.369 194.992 931.513 195.087C928.658 195.182 929.372 197.895 928.373 198.751C927.373 199.56 927.183 199.227 926.327 201.178Z" fill="#83B84D"/>
<path fill-rule="evenodd" clip-rule="evenodd" d="M953.974 177.623C953.974 177.623 958.399 188.378 959.351 191.947C960.303 195.516 960.16 198.181 963.396 201.083C966.632 203.986 969.534 206.603 973.532 210.125C977.481 213.646 988.189 223.401 988.189 223.401L995.516 231.586L1000.47 244.387C1000.47 244.387 1006.18 248.955 1009.6 250.859C1013.03 252.762 1017.31 258.472 1017.79 253.952C1018.26 249.431 1019.6 246.433 1014.88 242.817C1010.17 239.248 1008.51 232.014 1005.22 229.635C1001.94 227.303 997.277 221.165 997.277 221.165L992.804 212.742C992.804 212.742 981.383 207.603 977.101 203.225C972.818 198.847 970.914 198.371 968.725 193.85C966.536 189.33 965.442 189.901 965.204 186.57C964.966 183.239 962.54 178.813 959.589 176.815C956.639 174.816 956.591 173.198 955.449 174.673C954.307 176.196 953.974 177.623 953.974 177.623Z" fill="#83B84D"/>
<path fill-rule="evenodd" clip-rule="evenodd" d="M603.502 99.9153C600.266 100.439 598.267 99.1063 597.553 98.0594C596.839 97.0601 592.176 98.7256 592.176 98.7256C592.176 98.7256 592.081 103.627 593.604 103.722C595.127 103.817 594.27 107.91 598.886 110.622C603.502 113.382 604.501 117.617 611.877 116.38C619.253 115.143 623.298 111.526 623.298 111.526C623.298 111.526 633.767 110.099 632.339 106.101C630.911 102.104 628.056 99.9629 624.915 97.4408C621.775 94.9187 622.536 93.0153 619.062 95.2519C615.589 97.4884 612.258 97.4408 608.641 98.1546C604.977 98.916 606.69 99.3918 603.502 99.9153Z" fill="#83B84D"/>
<path fill-rule="evenodd" clip-rule="evenodd" d="M649.374 19.8301C648.47 20.1632 643.712 20.0681 644.235 21.8764C644.759 23.6846 648.994 26.0639 648.994 26.0639C648.994 26.0639 653.372 27.8722 655.085 27.777C656.798 27.6819 662.08 30.3943 662.08 30.3943C662.08 30.3943 669.932 33.0115 668.456 30.6798C666.981 28.3481 666.982 26.2067 669.361 27.3487C671.74 28.4908 676.023 27.206 673.738 26.4446C671.454 25.6832 660.509 22.7805 660.509 22.7805L663.65 19.4494C663.65 19.4494 657.845 16.166 655.798 17.3556C653.705 18.5929 650.231 19.497 649.374 19.8301Z" fill="#83B84D"/>
<path fill-rule="evenodd" clip-rule="evenodd" d="M684.398 173.863C682.78 174.624 683.256 176.623 682.495 178.526C681.733 180.43 676.404 182 676.404 182C676.404 182 674.167 186.473 676.213 188.044C678.259 189.614 681.543 190.756 681.543 190.756C681.543 190.756 675.119 195.943 676.832 199.179C678.592 202.415 679.211 207.173 682.923 205.46C686.635 203.747 689.061 201.796 691.869 200.987C694.677 200.178 699.34 200.178 699.387 197.228C699.435 194.277 698.959 192.707 697.532 188.853C696.104 184.95 694.438 185.236 696.199 183.285C697.96 181.334 701.672 179.335 695.866 177.337C690.013 175.29 686.682 172.816 684.398 173.863Z" fill="#83B84D"/>
<path fill-rule="evenodd" clip-rule="evenodd" d="M717.28 203.415C716.899 205.604 717.089 204.509 714.9 207.269C712.711 210.029 710.665 213.17 711.522 214.455C712.378 215.74 714.71 214.645 717.994 213.122C721.229 211.6 724.846 208.935 727.891 209.125C730.937 209.315 742.262 207.507 742.262 207.507C742.262 207.507 748.686 203.462 745.736 201.416C742.786 199.417 743.975 198.989 744.451 195.753C744.927 192.47 743.357 188.425 740.169 188.615C736.981 188.853 734.363 189.805 734.363 189.805C734.363 189.805 730.081 181.668 726.987 179.622C723.894 177.575 716.281 171.722 716.281 171.722C716.281 171.722 710.285 167.059 707.858 167.106C705.431 167.154 706.478 163.538 706.478 163.538C706.478 163.538 709.999 156.685 707.049 155.21C704.098 153.782 695.961 155.353 695.961 155.353C695.866 154.782 694.391 153.973 697.008 152.022C699.625 150.071 699.34 148.5 696.389 148.262C693.439 148.024 688.918 148.881 687.966 150.689C687.015 152.498 681.685 155.162 684.017 157.209C686.301 159.255 690.774 160.968 691.107 163.49C691.44 166.012 690.536 167.678 692.202 169.2C693.867 170.723 697.341 168.677 698.102 169.866C698.864 171.056 700.196 173.531 700.196 173.531L699.911 176.386C699.911 176.386 705.574 176.386 708.048 177.766C710.523 179.146 714.9 183.571 714.9 183.571C714.9 183.571 712.426 186.902 710.094 187.235C707.762 187.569 708.857 191.042 708.857 191.042C708.857 191.042 714.377 193.993 712.188 195.563C709.999 197.133 708.524 199.655 708.524 199.655C708.524 199.655 711.997 201.844 714.71 201.892C717.279 201.94 717.66 201.273 717.28 203.415Z" fill="#83B84D"/>
<path opacity="0.05" fill-rule="evenodd" clip-rule="evenodd" d="M959.589 176.812C988.712 244.336 1004.89 318.761 1004.89 396.993C1004.89 704.447 755.634 953.703 448.18 953.703C283.247 953.703 135.159 881.943 33.2292 768.022C118.551 965.933 315.367 1104.55 544.59 1104.55C852.044 1104.55 1101.3 855.295 1101.3 547.841C1101.35 405.273 1047.72 275.315 959.589 176.812Z" fill="black"/>
</g>
<path fill-rule="evenodd" clip-rule="evenodd" d="M406.741 72.8335C329.54 81.3339 257.602 100.156 217.101 126.537L214.764 124.578C256.131 97.6324 328.896 77.0982 406.273 68.5785C483.71 60.0522 566.205 61.8821 627.21 76.7148C757.098 108.296 846.254 175.9 874.323 197.34L871.724 207.251C843.779 185.905 755.2 112.24 626.198 80.8744C565.839 66.1987 483.882 64.3399 406.741 72.8335Z" fill="#5EE3EB"/>
<path d="M100.87 166.631C81.0616 187.192 67.7328 208.496 56.484 205.467C45.2352 202.438 58.362 177.185 66.6373 166.888C62.274 164.624 55.9065 153.964 65.5679 132.614C73.8525 114.305 88.8161 108.566 98.3082 106.208C97.4014 92.31 98.799 76.6232 113.548 63.8191C137.012 43.4487 160.153 52.7994 169.308 56.9416C177.613 38.2273 190.959 36.1295 212.764 35.9812C233.547 35.8398 273.582 49.3277 227.709 69.7551C181.837 90.1824 120.677 146.071 100.87 166.631Z" fill="white"/>
<path d="M921.954 125.282C895.45 102.884 868.138 87.8822 871.744 75.0255C875.351 62.1688 928.346 91.8566 941.585 101.198C949.721 95.0959 958.228 91.5994 985.521 102.419C1008.92 111.696 1027.02 119.912 1032.71 129.269C1039.55 140.502 1045.73 150.016 1042.07 167.103C1061.6 165.069 1082.51 188.664 1091.29 199.648C1099.1 209.412 1097.3 225.477 1093.73 250.093C1090.08 275.316 1052.27 287.572 1025.39 235.448C998.505 183.324 948.458 147.68 921.954 125.282Z" fill="white"/>
<g clip-path="url(#clip1)">
<path d="M238.758 82.588L259.724 110.618L216.992 142.568L196.047 114.522L238.758 82.588Z" fill="#F5BE38"/>
<path fill-rule="evenodd" clip-rule="evenodd" d="M242.552 87.6528C239.893 91.5696 232.622 98.5749 223.324 105.907C213.77 113.441 204.971 119.049 200.579 120.614L195.643 114.013L238.374 82.0632L242.552 87.6528Z" fill="#D9A123"/>
<path fill-rule="evenodd" clip-rule="evenodd" d="M234.302 121.191C222.481 130.041 214.746 139.623 217.013 142.594C219.274 145.56 230.639 140.819 242.41 132.006C254.181 123.193 261.934 113.62 259.723 110.619C257.505 107.611 246.122 112.341 234.302 121.191Z" fill="#F5BE38"/>
<path fill-rule="evenodd" clip-rule="evenodd" d="M217.275 98.5123C230.152 88.8758 241.472 82.2989 242.823 84.1372C244.174 85.9687 234.873 95.2324 222.03 104.845C209.181 114.459 197.65 120.787 196.267 118.98C194.88 117.168 204.394 108.153 217.275 98.5123Z" fill="#F5BE38"/>
<path fill-rule="evenodd" clip-rule="evenodd" d="M236.71 75.9614L242.825 84.1394L196.266 118.982L190.151 110.803L236.71 75.9614Z" fill="#F5BE38"/>
<path fill-rule="evenodd" clip-rule="evenodd" d="M210.848 89.9395C197.973 99.5744 188.709 108.917 190.154 110.807C191.599 112.69 203.173 106.428 216.012 96.8186C228.849 87.212 238.118 77.8762 236.712 75.9634C235.298 74.0507 223.719 80.3079 210.848 89.9395Z" fill="#FFDB65"/>
<path fill-rule="evenodd" clip-rule="evenodd" d="M211.548 90.7949C201.278 98.4826 193.759 105.769 194.751 107.072C195.741 108.374 204.856 103.208 215.108 95.5353C225.361 87.8643 232.883 80.5783 231.91 79.2627C230.935 77.9478 221.819 83.1091 211.548 90.7949Z" fill="#3B2812"/>
<path fill-rule="evenodd" clip-rule="evenodd" d="M183.663 64.6686C184.147 64.4582 184.637 64.7638 184.687 65.0109C184.755 65.3502 184.735 66.2594 184.624 67.4513C184.529 68.4615 184.48 69.4426 184.427 69.7469C184.389 69.9621 184.181 70.0351 183.966 70.0677C182.177 70.343 180.528 69.5578 180.418 68.0056C180.283 66.1185 182.694 65.0902 183.663 64.6686Z" fill="#996D35"/>
<path fill-rule="evenodd" clip-rule="evenodd" d="M187.936 77.7656C187.894 78.798 187.912 80.8416 187.974 81.2165C188.069 80.9616 188.218 80.7614 188.336 80.7255C188.23 81.4663 188.452 82.0647 188.477 82.1984C188.649 81.5923 189.069 81.0809 189.069 81.0809L188.713 79.1031L187.936 77.7656Z" fill="#B37F3E"/>
<path fill-rule="evenodd" clip-rule="evenodd" d="M224.345 75.0728C224.439 76.1016 224.53 78.1431 224.489 78.5205C224.38 78.2718 224.221 78.0793 224.102 78.0486C224.246 78.7831 224.057 79.3916 224.039 79.5267C223.837 78.9302 223.389 78.4418 223.389 78.4418L223.641 76.4477L224.345 75.0728Z" fill="#B37F3E"/>
<path fill-rule="evenodd" clip-rule="evenodd" d="M204.023 67.6803C204.848 67.4315 207.18 66.8752 207.494 66.8455C207.309 66.9757 207.178 67.1389 207.173 67.2403C207.749 66.9999 208.279 67.0532 208.392 67.0475C207.939 67.3124 207.614 67.7606 207.614 67.7606L205.805 68.4066L204.023 67.6803Z" fill="#B37F3E"/>
<path d="M202.57 105.246C202.061 104.441 202.137 104.68 201.563 103.849C199.014 100.168 196.776 97.8557 195.504 94.5292C193.387 88.9964 191.716 87.5338 189.718 82.9225C188.788 80.778 187.335 79.5291 186.144 76.0717C185.071 72.9569 182.754 69.1019 182.707 66.0784C182.656 62.8694 185.205 58.72 187.104 57.5898C190.337 55.6641 191.926 55.0479 193.493 55.8222C195.862 56.9924 197.529 58.259 200.444 61.2207C203.333 64.1556 204.392 64.7391 206.793 66.7954C209.194 68.8517 213.181 73.2174 215.8 75.2821C218.219 77.1888 221.408 80.9231 223.071 82.9152C223.672 83.6358 225.131 85.3914 226.655 87.2989L215.057 96.8658L202.57 105.246Z" fill="#B37F3E"/>
<path fill-rule="evenodd" clip-rule="evenodd" d="M186.993 60.3546C187.055 60.4744 186.725 60.6974 186.607 60.4327C186.483 60.1567 186.516 59.7849 186.794 59.4658C187.071 59.1464 187.475 58.8359 187.719 59.0455C187.963 59.2551 187.937 59.2985 187.738 59.2804C187.443 59.2532 187.186 59.4386 187.068 59.6027C186.955 59.7635 186.833 60.0494 186.993 60.3546Z" fill="#996D35"/>
<path fill-rule="evenodd" clip-rule="evenodd" d="M187.143 59.5219C186.885 59.8005 186.855 60.1998 187.064 60.4237C187.275 60.6467 187.608 60.586 187.882 60.3278C188.166 60.0578 188.226 59.6464 188 59.404C187.775 59.1585 187.412 59.2313 187.143 59.5219Z" fill="black"/>
<path fill-rule="evenodd" clip-rule="evenodd" d="M187.214 59.8066C187.276 59.831 187.299 59.9151 187.265 59.9922C187.232 60.0693 187.157 60.1104 187.095 60.0861C187.034 60.0609 187.01 59.9794 187.042 59.9032C187.075 59.825 187.152 59.7823 187.214 59.8066Z" fill="#CBCBCA"/>
<path d="M189.113 59.9691C189.272 61.1835 191.214 63.2092 194.096 64.9467C195.855 66.0068 196.795 66.2765 197.697 65.4946C198.868 64.479 199.075 63.8952 196.519 61.7578C195.502 60.7403 192.786 58.0952 191.624 59.1911C190.414 60.3331 188.108 58.3956 189.113 59.9691Z" fill="#996D35"/>
<path d="M197.745 62.1072C198.045 62.4347 198.359 63.0637 197.953 63.5357C197.583 63.9658 197.122 64.6467 196.281 64.6121C195.353 64.5724 194.496 64.8542 193.105 64.3105C191.73 63.7729 190.607 62.8585 190.054 62.1526C189.108 60.9411 188.277 59.6922 188.108 58.7375C187.947 57.8261 188.246 55.6655 188.823 55.1074C189.401 54.5493 189.982 53.985 190.301 53.8895C190.62 53.7958 190.783 53.6114 191.355 53.7478C191.889 53.8759 192.199 54.2175 192.583 54.4914C193.093 54.857 193.835 55.4554 194.046 56.0001C194.346 56.7822 194.327 57.5895 194.424 58.3066C194.539 59.1545 194.769 59.8764 195.205 60.2726C196.234 61.2119 196.755 61.0309 197.745 62.1072Z" fill="#EABE8B"/>
<path d="M192.649 55.8102C191.642 56.259 190.906 56.5092 190.693 57.6468C190.521 58.5649 190.607 61.3455 192.064 62.6125C192.902 63.3413 193.451 63.7643 194.849 63.9913C196.67 64.286 197.168 63.7491 197.573 63.2441C197.956 62.7696 197.691 62.1968 196.76 61.5982C195.933 61.0666 195.519 60.8642 194.944 60.2812C194.502 59.8352 194.28 58.8668 194.157 58.1084C194.057 57.493 194.156 57.0035 194.02 56.6352C193.755 55.9149 193.354 55.4958 192.649 55.8102Z" fill="black"/>
<path d="M193.147 56.2981C192.93 56.2792 192.563 56.3784 192.132 56.6833C191.332 57.2497 190.664 58.1193 190.904 58.5565C191.164 59.0333 191.996 59.401 192.137 59.2354C192.305 59.0353 191.515 58.2171 191.67 57.8946C191.824 57.5721 192.003 57.3995 192.476 57.0661C192.868 56.7895 193.068 56.8184 193.135 56.8848C193.378 57.1271 193.686 57.3198 193.791 57.3995C193.949 57.5216 194.133 57.5375 193.791 56.8524C193.561 56.3559 193.384 56.3112 193.147 56.2981Z" fill="#F2F2F2"/>
<path d="M189.972 53.8834C191.052 53.2959 191.424 53.7135 191.477 53.9765C191.528 54.2198 191.433 54.6125 191.337 54.7866C191.224 54.9937 191.055 55.0684 190.828 55.1638C190.162 55.4433 189.693 55.312 188.925 55.3794C188.455 55.4213 188.875 54.4793 189.972 53.8834Z" fill="black"/>
<path d="M193.216 61.7347C193.216 61.7347 193.565 61.1927 194.288 61.2105C194.815 61.2229 195.373 61.6608 195.159 61.9873C194.899 62.387 194.464 62.2154 193.98 62.3768C193.612 62.5008 193.026 62.838 192.721 62.7122C192.384 62.572 192.652 61.8989 193.216 61.7347Z" fill="#630716"/>
<path d="M196.968 62.313C196.927 62.4863 196.75 62.8258 196.438 63.1044C195.905 63.5822 195.206 63.9649 194.841 63.5914C194.407 63.1213 194.3 62.735 194.454 62.6571C194.615 62.5743 195.156 63.137 195.358 63.119C195.47 63.11 195.846 62.99 196.127 62.7059C196.358 62.4725 196.444 62.22 196.429 62.1601C196.367 61.9055 196.203 61.7084 196.166 61.6126C196.11 61.4677 196.057 61.2501 196.463 61.6131C196.872 61.9774 197.009 62.1389 196.968 62.313Z" fill="#F2F2F2"/>
<path d="M199.757 93.0859C199.757 93.0859 204 99.2281 203.394 101.477C202.679 104.131 201.875 104.316 201.875 104.316L198.715 99.9339L199.757 93.0859Z" fill="#996D35"/>
<path d="M206.564 67.6753C206.564 67.6753 213.115 67.4642 213.243 66.8297C213.371 66.1951 215.013 59.0878 215.089 57.5259C215.15 56.2884 216.041 53.6691 218.119 53.3314C220.196 52.9937 223.276 54.468 223.068 57.9738C222.891 60.9881 222.08 61.9662 222.303 63.1397C222.524 64.3043 225.25 73.933 224.27 77.2599C223.571 79.6325 219.179 82.5121 217.908 83.3717C216.141 84.5663 211.68 82.2289 208.706 77.8168C205.732 73.4046 204.277 68.9796 206.564 67.6753Z" fill="#B37F3E"/>
<path d="M189.52 80.5707C188.778 80.4636 188.623 85.4846 187.795 85.8331C186.965 86.1805 183.684 85.4505 183.25 84.5787C182.815 83.7068 182.844 81.9157 181.432 80.0879C180.758 79.2152 178.373 79.2726 177.361 80.6829C176.348 82.0932 175.448 84.8181 176.195 86.5441C176.942 88.2711 180.181 92.1253 181.538 93.9403C182.895 95.7554 186.9 100.371 189.64 101.357C193.329 102.685 199.085 101.442 200.122 101.156C201.159 100.871 203.672 99.2087 202.412 96.2875C201.154 93.3666 193.546 81.1529 189.52 80.5707Z" fill="#B37F3E"/>
<path d="M216.439 58.4385C216.516 59.1758 218.443 59.691 219.229 59.6706C220.015 59.6502 221.119 59.7778 221.523 59.0665C221.927 58.3553 222.895 57.4586 221.606 56.2352C220.684 55.3605 220.239 55.2797 218.9 55.4236C217.562 55.5675 216.229 56.4008 216.439 58.4385Z" fill="#996D35"/>
<path d="M215.894 55.2912C215.894 55.2912 215.56 53.8107 215.922 53.1762C216.159 52.7597 216.441 52.6194 216.436 52.8073C216.43 52.9952 216.152 53.2065 216.389 53.992C216.466 54.2458 216.844 54.6905 216.74 55.0473C216.638 55.4045 216.119 55.8235 215.894 55.2912Z" fill="#030304"/>
<path d="M217.135 54.2104C217.135 54.2104 216.871 53.0676 217.232 52.4321C217.47 52.0156 217.752 51.8752 217.746 52.0632C217.74 52.2511 217.462 52.4623 217.699 53.2479C217.776 53.5017 218.184 54.1297 218.081 54.4858C217.979 54.8418 217.358 54.7417 217.135 54.2104Z" fill="#030304"/>
<path d="M218.465 54.1532C218.465 54.1532 218.352 52.6689 218.808 52.0961C219.106 51.7212 219.406 51.6268 219.372 51.8106C219.338 51.9944 219.03 52.162 219.144 52.974C219.18 53.2364 219.487 53.9193 219.332 54.2561C219.174 54.5927 218.604 54.7126 218.465 54.1532Z" fill="#030304"/>
<path d="M220.058 53.8244C220.058 53.8244 220.092 52.7621 220.591 52.2285C220.919 51.879 221.226 51.8077 221.176 51.9883C221.127 52.1699 220.808 52.3108 220.854 53.1294C220.87 53.3937 221.061 53.9915 220.879 54.3148C220.696 54.6381 220.153 54.393 220.058 53.8244Z" fill="#030304"/>
<path d="M221.458 54.75C221.458 54.75 221.466 53.7175 221.989 53.2066C222.333 52.8719 222.642 52.8144 222.585 52.9939C222.528 53.1726 222.201 53.2988 222.212 54.1191C222.215 54.3844 222.364 55.0646 222.166 55.379C221.968 55.6934 221.527 55.3233 221.458 54.75Z" fill="#030304"/>
<path d="M179.469 87.4608C180.144 87.3569 181.305 85.9719 181.454 85.4617C181.603 84.9515 181.81 83.6147 181.749 83.1735C181.689 82.7323 181.658 81.1155 180.554 81.3905C179.589 81.6306 178.682 82.1826 178.51 83.3666C178.337 84.5514 178.11 85.265 178.16 85.9831C178.205 86.6522 178.752 87.5711 179.469 87.4608Z" fill="#996D35"/>
<path d="M179.437 80.2681C179.193 80.2877 178.918 80.1931 178.733 79.652C178.546 79.1116 178.767 78.2796 179.121 77.9878C179.474 77.6969 179.512 77.921 179.345 78.3236C179.214 78.6389 179.123 78.8655 179.559 79.2107C179.958 79.5255 180.195 79.6609 179.967 79.9391C179.74 80.2184 179.681 80.2493 179.437 80.2681Z" fill="#030304"/>
<path d="M178.157 81.2187C177.916 81.2609 177.682 81.1616 177.444 80.6409C177.206 80.1201 177.078 79.5141 177.259 79.1193C177.451 78.703 177.533 78.9412 177.583 79.353C177.624 79.6931 177.709 79.8537 178.176 80.1553C178.603 80.4307 178.853 80.5419 178.652 80.8414C178.452 81.1409 178.397 81.1754 178.157 81.2187Z" fill="#030304"/>
<path d="M177.301 82.3955C177.06 82.4377 176.826 82.3384 176.588 81.8176C176.35 81.2969 176.222 80.6908 176.403 80.2961C176.595 79.8798 176.677 80.118 176.728 80.5298C176.768 80.8699 176.853 81.0304 177.321 81.332C177.747 81.6074 177.997 81.7186 177.797 82.0182C177.596 82.3177 177.543 82.3524 177.301 82.3955Z" fill="#030304"/>
<path d="M176.946 84.0529C176.688 84.1601 176.413 84.1098 176.061 83.5919C175.71 83.075 175.462 82.4343 175.593 81.9523C175.732 81.4427 175.865 81.6853 175.991 82.1293C176.095 82.4959 176.216 82.653 176.783 82.8687C177.301 83.0658 177.594 83.1274 177.426 83.5087C177.259 83.89 177.204 83.9446 176.946 84.0529Z" fill="#030304"/>
<path d="M177.3 86.2682C177.062 86.444 176.691 86.3326 176.232 85.8878C175.774 85.4431 175.294 84.3808 175.328 83.8502C175.363 83.2907 175.683 83.9265 175.901 84.3528C176.08 84.7042 176.28 85.0086 176.895 85.0896C177.455 85.1638 177.405 85.2066 177.509 85.5039C177.647 85.9004 177.537 86.0925 177.3 86.2682Z" fill="#030304"/>
<path fill-rule="evenodd" clip-rule="evenodd" d="M194.952 107.217C196.627 107.868 205.353 102.837 215.107 95.5361C224.862 88.2373 232.144 81.2874 231.99 79.4968L236.711 75.9644C238.117 77.8771 228.848 87.2129 216.011 96.8195C203.172 106.427 191.598 112.691 190.153 110.808L194.952 107.217Z" fill="#FFDB65"/>
</g>
<path fill-rule="evenodd" clip-rule="evenodd" d="M859.861 197.638C856.35 202.481 856.991 211.138 869.974 219.495C886.5 230.133 891.733 221.372 893.655 215.76C896.983 206.047 889.873 202.697 882.976 196.694C873.697 188.618 864.151 191.718 859.861 197.638Z" fill="#825B1B"/>
<mask id="mask1" mask-type="alpha" maskUnits="userSpaceOnUse" x="858" y="191" width="37" height="34">
<path fill-rule="evenodd" clip-rule="evenodd" d="M859.862 197.637C856.35 202.481 856.991 211.138 869.974 219.495C886.5 230.133 891.733 221.373 893.656 215.759C896.983 206.046 889.873 202.698 882.976 196.694C881.584 195.482 880.184 194.522 878.799 193.785C870.95 189.61 863.508 192.606 859.862 197.637Z" fill="white"/>
</mask>
<g mask="url(#mask1)">
<path fill-rule="evenodd" clip-rule="evenodd" d="M857.647 206.89C854.418 212.222 858.357 220.641 866.504 225.6C874.651 230.558 883.685 230.036 886.63 224.531C889.519 219.132 885.444 210.951 877.578 206.164C869.713 201.376 860.813 201.662 857.647 206.89Z" fill="black"/>
</g>
<path fill-rule="evenodd" clip-rule="evenodd" d="M892.132 205.069C894.035 206.287 893.423 211.328 893.882 212.756C894.67 215.211 899.802 213.303 900.459 211.773C901.112 210.25 901.552 205.473 899.261 204.275C896.968 203.076 890.592 204.083 892.132 205.069Z" fill="#D4C07C"/>
<path fill-rule="evenodd" clip-rule="evenodd" d="M884.431 195.07C883.174 197.763 882.845 199.089 887.066 201.297C891.284 203.502 896.332 209.033 896.982 206.047C897.478 203.772 896.602 198.719 892.462 196.443C888.311 194.162 885.683 192.385 884.431 195.07Z" fill="#D4C07C"/>
<path fill-rule="evenodd" clip-rule="evenodd" d="M868.428 189.91C865.56 195.726 873.672 189.804 876.751 194.335C879.671 198.632 883.804 200.109 885.061 197.407C886.307 194.727 883.411 191.885 879.221 189.69C875.028 187.495 869.744 187.24 868.428 189.91Z" fill="#D4C07C"/>
<path fill-rule="evenodd" clip-rule="evenodd" d="M859.697 191.586C859.031 192.88 859.216 191.883 863.103 194.564C865.685 196.343 866.919 192.787 872.899 192.871C874.648 192.895 871.58 188.001 867.287 186.229C862.958 184.444 860.36 190.297 859.697 191.586Z" fill="#D4C07C"/>
<path fill-rule="evenodd" clip-rule="evenodd" d="M893.776 210.201C892.932 212.116 893.469 216.512 896.385 218.033C899.298 219.553 902.487 219.632 902.488 217.425C902.488 213.904 902.101 212.027 899.672 211.397C896.588 210.596 894.615 208.297 893.776 210.201Z" fill="#D4C07C"/>
<path fill-rule="evenodd" clip-rule="evenodd" d="M891.61 218.306C888.051 217.65 886.08 220.973 886.647 221.728C893.154 230.407 887.142 222.349 892.522 224.814C897.924 227.289 899.374 225.739 900.043 222.734C901.583 215.805 897.625 213.831 895.153 217.558C894.149 219.072 894.296 218.802 891.61 218.306Z" fill="#D4C07C"/>
<path fill-rule="evenodd" clip-rule="evenodd" d="M862.643 196.763C862.765 194.452 865.972 195.611 862.159 191.77C858.843 186.203 858.182 190.889 855.041 191.71C852.825 192.29 850.98 195.501 856.785 199.465C859.675 201.438 862.569 198.157 862.643 196.763Z" fill="#D4C07C"/>
<path fill-rule="evenodd" clip-rule="evenodd" d="M845.348 203.531C843.587 203.958 845.121 205.148 846.783 206.012C849.992 207.683 850.814 206.497 850.295 205.673C849.785 204.86 850.201 203.467 848.549 202.608C846.896 201.747 846.354 203.287 845.348 203.531Z" fill="#D4C07C"/>
<path fill-rule="evenodd" clip-rule="evenodd" d="M891.102 216.682C890.47 217.87 890.273 218.568 892.155 219.551C894.037 220.533 895.011 220.162 895.52 218.988C896.027 217.817 896.416 215.991 894.541 215.011C892.665 214.031 891.942 215.101 891.102 216.682Z" fill="#D4C07C"/>
<path fill-rule="evenodd" clip-rule="evenodd" d="M851.301 211.544C850.793 211.75 851.466 212.127 851.904 212.351C852.341 212.574 852.177 212.365 852.328 212.07C852.48 211.775 852.616 211.32 852.18 211.097C851.743 210.874 851.591 211.427 851.301 211.544Z" fill="#D4C07C"/>
<path fill-rule="evenodd" clip-rule="evenodd" d="M888.969 232.141C886.733 232.697 888.179 233.941 890.415 235.1C892.651 236.258 893.73 235.98 894.209 234.856C894.685 233.738 894.968 231.961 892.749 230.81C890.529 229.659 890.246 231.824 888.969 232.141Z" fill="#D4C07C"/>
<path fill-rule="evenodd" clip-rule="evenodd" d="M884.128 226.283C885.178 228.75 887.078 228.817 888.339 228.601C889.715 228.367 891.763 227.986 892.563 226.942C893.364 225.898 893.773 226.206 893.633 223.753C893.507 221.56 886.473 220.263 886.428 220.255C884.805 220.007 883.186 224.068 884.128 226.283Z" fill="#D4C07C"/>
<path fill-rule="evenodd" clip-rule="evenodd" d="M852.769 203.718C853.56 202.452 853.672 202.028 856.207 201.517C859.196 200.914 862.274 204.006 861.662 208.246C861.094 212.171 862.072 212.013 858.621 211.324C855.169 210.636 852.646 205.632 852.646 205.632C852.646 205.632 851.979 204.984 852.769 203.718Z" fill="#D4C07C"/>
<path fill-rule="evenodd" clip-rule="evenodd" d="M852.105 194.94C853.243 194.788 854.337 195.306 855.544 197.264C856.783 199.273 859.997 197.938 858.695 202.1C855.132 201.406 853 206.416 851.117 203.334C849.228 200.243 848.998 197.639 849.487 196.543C849.977 195.444 850.768 195.118 852.105 194.94Z" fill="#D4C07C"/>
<path fill-rule="evenodd" clip-rule="evenodd" d="M846.316 193.995C846.863 193.684 848.605 194.177 846.922 191.897C846.066 190.735 843.81 190.721 843.195 191.205C842.585 191.686 842.418 192.917 843.838 193.451C845.929 194.238 845.644 194.375 846.316 193.995Z" fill="#D4C07C"/>
<path fill-rule="evenodd" clip-rule="evenodd" d="M857.564 211.082C856.187 212.363 856.335 213.187 861.499 216.933C866.447 220.524 872.216 223.804 873.538 221.895C874.85 220 872.818 213.33 867.026 212.02C858.497 210.091 859.257 209.508 857.564 211.082Z" fill="#D4C07C"/>
<path fill-rule="evenodd" clip-rule="evenodd" d="M872.564 221.586C873.366 224.356 876.352 226.228 877.752 226.448C879.363 226.701 884.209 229.426 884.391 226.3C884.469 224.948 884.213 221.43 883.267 219.372C881.908 216.418 876.601 217.986 876.554 217.967C874.821 217.293 871.844 219.103 872.564 221.586Z" fill="#D4C07C"/>
</g>
<defs>
<clipPath id="clip0">
<rect width="1102" height="256" fill="white"/>
</clipPath>
<clipPath id="clip1">
<rect width="60.6342" height="94.0057" fill="white" transform="matrix(-0.800891 0.59881 0.59881 0.800891 211.328 37.8687)"/>
</clipPath>
</defs>
</svg>
